<svg width="158" height="40" viewBox="0 0 158 40" fill="none" xmlns="http://www.w3.org/2000/svg">
<g filter="url(#filter0_d_2140_3482)">
<path d="M18.0011 14.9993H32.0011C32.0011 22.6837 25.6855 28.9993 18.0011 28.9993C10.3167 28.9993 4.0011 22.6837 4.0011 14.9993C4.0011 7.31483 10.3167 0.999268 18.0011 0.999268C21.7189 0.999268 25.2811 2.47703 27.8944 5.10592L18.0011 14.9993Z" fill="url(#paint0_linear_2140_3482)"/>
</g>
<path d="M57.1316 13.1193C57.1316 14.5486 56.8009 15.8499 56.1396 17.0233C55.4783 18.1753 54.4969 19.0926 53.1956 19.7753C51.9156 20.4579 50.3583 20.7993 48.5236 20.7993H45.7076V27.9993H38.6036V5.34326H48.5236C51.2969 5.34326 53.4196 6.04726 54.8916 7.45526C56.3849 8.86326 57.1316 10.7513 57.1316 13.1193ZM47.7236 15.1993C49.1956 15.1993 49.9316 14.5059 49.9316 13.1193C49.9316 11.7326 49.1956 11.0393 47.7236 11.0393H45.7076V15.1993H47.7236ZM66.4889 11.0073V13.7913H73.5289V19.1353H66.4889V22.3353H74.4889V27.9993H59.3849V5.34326H74.4889V11.0073H66.4889ZM88.5581 27.9993L84.3021 19.8713H84.2701V27.9993H77.1661V5.34326H87.7261C89.5608 5.34326 91.1288 5.67393 92.4301 6.33526C93.7314 6.97526 94.7021 7.8606 95.3421 8.99126C96.0034 10.1006 96.3341 11.3593 96.3341 12.7673C96.3341 14.2819 95.9074 15.6259 95.0541 16.7993C94.2221 17.9726 93.0168 18.8153 91.4381 19.3273L96.3661 27.9993H88.5581ZM84.2701 15.1353H87.0861C87.7688 15.1353 88.2808 14.9859 88.6221 14.6873C88.9634 14.3673 89.1341 13.8766 89.1341 13.2153C89.1341 12.6179 88.9528 12.1486 88.5901 11.8073C88.2488 11.4659 87.7474 11.2953 87.0861 11.2953H84.2701V15.1353ZM114.604 5.34326V10.9753H105.708V14.1113H112.108V19.4553H105.708V27.9993H98.6036V5.34326H114.604ZM124.114 11.0073V13.7913H131.154V19.1353H124.114V22.3353H132.114V27.9993H117.01V5.34326H132.114V11.0073H124.114ZM149.223 27.9993L145.063 22.1113L141.607 27.9993H133.511L140.967 16.3193L133.191 5.34326H141.607L145.607 11.0073L148.935 5.34326H157.031L149.703 16.7993L157.639 27.9993H149.223Z" fill="#172D43"/>
<defs>
<filter id="filter0_d_2140_3482" x="0.00109768" y="-0.000732899" width="40" height="40" filterUnits="userSpaceOnUse" color-interpolation-filters="sRGB">
<feFlood flood-opacity="0" result="BackgroundImageFix"/>
<feColorMatrix in="SourceAlpha" type="matrix" values="0 0 0 0 0 0 0 0 0 0 0 0 0 0 0 0 0 0 127 0" result="hardAlpha"/>
<feOffset dx="2" dy="5"/>
<feGaussianBlur stdDeviation="3"/>
<feComposite in2="hardAlpha" operator="out"/>
<feColorMatrix type="matrix" values="0 0 0 0 0.364706 0 0 0 0 0.372549 0 0 0 0 0.937255 0 0 0 0.2 0"/>
<feBlend mode="normal" in2="BackgroundImageFix" result="effect1_dropShadow_2140_3482"/>
<feBlend mode="normal" in="SourceGraphic" in2="effect1_dropShadow_2140_3482" result="shape"/>
</filter>
<linearGradient id="paint0_linear_2140_3482" x1="47.0011" y1="6.99927" x2="-76.9989" y2="73.9993" gradientUnits="userSpaceOnUse">
<stop stop-color="#5D5FEF"/>
<stop offset="1" stop-color="#0003FF"/>
</linearGradient>
</defs>
</svg>
